<svg xmlns="http://www.w3.org/2000/svg" width="440" height="470" viewBox="0 0 440 470" role="img"><title>Start a conversation: rudy.rudhresh@gmail.com</title><style>@keyframes up{from{transform:translateY(110%)}}.up{transform-box:fill-box;animation:up .7s cubic-bezier(0.16, 1, 0.3, 1) both}@keyframes ping{75%,100%{transform:scale(2.4);opacity:0}}.ping{transform-box:fill-box;transform-origin:50% 50%;animation:ping 1.6s cubic-bezier(0,0,.2,1) infinite}@keyframes nudge{0%,100%{transform:translateX(0)}50%{transform:translateX(8px)}}.nudge{animation:nudge 2.4s ease-in-out infinite}@keyframes roll{0%,40%{transform:translateY(0)}48%,90%{transform:translateY(-19px)}98%,100%{transform:translateY(-38px)}}.roll{animation:roll 9s cubic-bezier(.65,0,.35,1) infinite}@media (prefers-reduced-motion: reduce){*{animation:none!important}}</style><defs><path id="g15" d="M213 -12Q163 -28 126.5 -0.5Q90 27 90 92Q90 148 121.5 179.5Q153 211 201 211Q257 211 286.0 168.0Q315 125 315 51Q315 6 305.0 -40.0Q295 -86 273.5 -133.5Q252 -181 210.0 -215.5Q168 -250 111 -260V-158Q158 -148 185.5 -108.5Q213 -69 213 -12Z"/><path id="g16" d="M78 604H627V440H78Z"/><path id="g17" d="M90 98Q90 148 122.5 179.5Q155 211 203.0 211.0Q251 211 283.0 179.5Q315 148 315 98Q315 47 283.5 16.5Q252 -14 203.0 -14.0Q154 -14 122.0 16.5Q90 47 90 98Z"/><path id="g35" d="M1374 162Q1281 162 1220.5 204.0Q1160 246 1118 328H1114Q1017 170 819 170Q672 170 574.5 284.0Q477 398 477 590Q477 798 587.5 928.5Q698 1059 860 1059Q960 1059 1041.0 1007.0Q1122 955 1151 881H1155L1178 1044H1321L1255 530Q1241 423 1273.5 364.0Q1306 305 1386 305Q1481 305 1536.0 394.5Q1591 484 1591 655Q1591 949 1407.5 1133.0Q1224 1317 922 1317Q765 1317 629.5 1256.5Q494 1196 403.5 1096.0Q313 996 262.0 868.0Q211 740 211 604Q211 456 264.5 328.5Q318 201 410.0 113.0Q502 25 629.0 -24.5Q756 -74 901 -74Q1115 -74 1268 -12L1319 -129Q1152 -217 901 -217Q722 -217 569.0 -159.5Q416 -102 305.0 3.0Q194 108 131.0 263.0Q68 418 68 604Q68 835 176.0 1030.5Q284 1226 481.0 1343.0Q678 1460 922 1460Q1105 1460 1259.0 1397.5Q1413 1335 1516.5 1227.5Q1620 1120 1677.5 974.0Q1735 828 1735 662Q1735 550 1712.0 461.0Q1689 372 1652.0 317.5Q1615 263 1566.5 226.5Q1518 190 1470.5 176.0Q1423 162 1374 162ZM848 313Q972 313 1043.0 407.5Q1114 502 1114 645Q1114 775 1049.5 845.0Q985 915 887 915Q760 915 690.5 822.0Q621 729 621 584Q621 461 678.0 387.0Q735 313 848 313Z"/><path id="g36" d="M985 367H340L211 0H20L561 1464H766L1305 0H1114ZM401 530H926L666 1294H662Z"/><path id="g38" d="M1198 981Q1189 1027 1171.5 1071.0Q1154 1115 1119.5 1163.0Q1085 1211 1038.5 1246.5Q992 1282 919.5 1305.5Q847 1329 760 1329Q659 1329 575.5 1295.0Q492 1261 435.5 1204.0Q379 1147 340.0 1070.0Q301 993 283.5 908.5Q266 824 266.0 733.0Q266 642 283.5 557.0Q301 472 340.0 394.5Q379 317 435.5 260.0Q492 203 575.5 169.0Q659 135 760 135Q849 135 922.0 158.5Q995 182 1043.5 220.0Q1092 258 1126.5 310.0Q1161 362 1177.5 416.0Q1194 470 1198 528H1382Q1365 365 1287.0 240.0Q1209 115 1072.5 43.0Q936 -29 760 -29Q562 -29 407.0 69.0Q252 167 167.0 340.5Q82 514 82 733Q82 951 167.0 1124.0Q252 1297 407.5 1395.0Q563 1493 760 1493Q891 1493 1003.0 1452.5Q1115 1412 1193.0 1341.5Q1271 1271 1320.0 1178.5Q1369 1086 1382 981Z"/><path id="g41" d="M322 825H975V662H322V0H137V1464H1130V1300H322Z"/><path id="g44" d="M141 1464H326V0H141Z"/><path id="g47" d="M137 1464H322V164H1090V0H137Z"/><path id="g50" d="M1174.0 69.5Q1010 -29 799.0 -29.0Q588 -29 424.0 69.5Q260 168 171.0 341.0Q82 514 82.0 733.0Q82 952 171.0 1124.5Q260 1297 424.0 1395.0Q588 1493 799.0 1493.0Q1010 1493 1174.0 1395.0Q1338 1297 1427.0 1124.5Q1516 952 1516.0 733.0Q1516 514 1427.0 341.0Q1338 168 1174.0 69.5ZM799 135Q933 135 1037.0 183.5Q1141 232 1204.0 316.5Q1267 401 1299.0 506.5Q1331 612 1331.0 733.0Q1331 854 1299.0 959.5Q1267 1065 1204.0 1148.5Q1141 1232 1037.0 1280.5Q933 1329 799 1329Q691 1329 602.0 1297.0Q513 1265 451.5 1210.0Q390 1155 347.5 1079.0Q305 1003 285.5 916.0Q266 829 266.0 733.0Q266 637 285.5 550.0Q305 463 347.5 386.5Q390 310 451.5 254.5Q513 199 602.0 167.0Q691 135 799 135Z"/><path id="g53" d="M137 0V1464H731Q950 1464 1082.0 1353.0Q1214 1242 1214 1049Q1214 895 1145.5 803.5Q1077 712 952 680V676Q1029 661 1080.5 606.5Q1132 552 1153.5 481.5Q1175 411 1187.0 330.0Q1199 249 1200.5 181.0Q1202 113 1210.0 65.5Q1218 18 1235 12V0H1036Q1022 13 1017.5 64.5Q1013 116 1014.0 180.5Q1015 245 1003.5 318.5Q992 392 968.5 452.0Q945 512 887.0 552.0Q829 592 741 592H322V0ZM322 1300V756H688Q743 756 783.0 759.5Q823 763 873.0 779.0Q923 795 954.5 822.5Q986 850 1008.0 902.5Q1030 955 1030.0 1028.0Q1030 1101 1008.0 1153.5Q986 1206 954.5 1233.5Q923 1261 873.0 1277.0Q823 1293 783.0 1296.5Q743 1300 688 1300Z"/><path id="g54" d="M664 854Q754 832 799.5 819.5Q845 807 914.5 783.5Q984 760 1018.0 739.0Q1052 718 1096.0 683.0Q1140 648 1159.5 607.5Q1179 567 1193.5 510.0Q1208 453 1208 383Q1208 301 1177.0 228.5Q1146 156 1084.0 97.5Q1022 39 918.0 5.0Q814 -29 680 -29Q412 -29 236.0 109.0Q60 247 45 492H229Q237 414 265.5 351.0Q294 288 346.5 238.5Q399 189 483.5 162.0Q568 135 680 135Q858 135 941.0 204.5Q1024 274 1024 383Q1024 421 1019.5 451.0Q1015 481 1001.5 506.5Q988 532 973.0 550.5Q958 569 928.5 586.5Q899 604 871.0 616.5Q843 629 794.0 643.5Q745 658 701.5 669.0Q658 680 588 696Q532 709 491.5 720.0Q451 731 397.0 750.0Q343 769 305.5 789.5Q268 810 227.5 842.0Q187 874 162.5 910.5Q138 947 122.0 998.0Q106 1049 106 1108Q106 1284 237.5 1388.5Q369 1493 608 1493Q846 1493 994.5 1373.0Q1143 1253 1161 1030H977Q956 1180 867.0 1254.5Q778 1329 608 1329Q456 1329 373.5 1275.0Q291 1221 291 1128Q291 1074 308.5 1034.0Q326 994 351.5 969.5Q377 945 425.0 924.0Q473 903 515.0 891.5Q557 880 626 863Q651 857 664 854Z"/><path id="g55" d="M532 0V1300H45V1464H1204V1300H717V0Z"/><path id="g68" d="M752 778Q752 930 539 930Q392 930 332.0 883.0Q272 836 264 721H100Q108 882 215.5 977.5Q323 1073 539 1073Q601 1073 654.5 1063.0Q708 1053 757.0 1029.0Q806 1005 840.0 968.0Q874 931 894.5 873.5Q915 816 915 743V236Q915 168 938.0 140.5Q961 113 1034 121V6Q985 -10 938 -10Q859 -10 816.0 19.5Q773 49 752 131H748Q640 -29 393 -29Q236 -29 142.5 53.0Q49 135 49 268Q49 338 70.5 391.0Q92 444 127.0 479.0Q162 514 223.0 541.5Q284 569 345.0 585.0Q406 601 496 618Q642 645 697.0 675.0Q752 705 752 778ZM410 115Q565 115 658.5 187.0Q752 259 752 403V578Q712 538 510 496Q351 462 282.0 414.0Q213 366 213 276Q213 115 410 115Z"/><path id="g69" d="M608 1073Q706 1073 792.0 1035.0Q878 997 941.5 927.0Q1005 857 1042.0 752.5Q1079 648 1079.0 522.0Q1079 396 1042.0 291.5Q1005 187 941.5 117.0Q878 47 792.0 9.0Q706 -29 608 -29Q401 -29 281 129H276V0H113V1464H276V909H281Q392 1073 608 1073ZM592 115Q695 115 770.0 175.0Q845 235 880.0 325.5Q915 416 915.0 522.0Q915 628 880.0 719.0Q845 810 770.0 870.0Q695 930 592 930Q447 930 361.5 819.0Q276 708 276 522Q276 337 361.0 226.0Q446 115 592 115Z"/><path id="g70" d="M854 668Q851 714 833.5 758.0Q816 802 782.5 842.0Q749 882 691.5 906.0Q634 930 559 930Q487 930 428.5 906.5Q370 883 331.5 843.5Q293 804 266.5 750.5Q240 697 228.5 640.0Q217 583 217 522Q217 445 236.0 375.0Q255 305 294.0 245.5Q333 186 401.5 150.5Q470 115 559 115Q635 115 692.5 139.0Q750 163 783.0 203.5Q816 244 833.5 289.5Q851 335 854 385H1018Q1007 205 879.0 88.0Q751 -29 559 -29Q331 -29 192.0 123.0Q53 275 53.0 522.0Q53 769 192.0 921.0Q331 1073 559 1073Q749 1073 874.0 959.5Q999 846 1018 668Z"/><path id="g71" d="M856 1464H1020V0H856V129H852Q732 -29 524 -29Q426 -29 340.0 9.0Q254 47 190.5 117.0Q127 187 90.0 291.5Q53 396 53.0 522.0Q53 648 90.0 752.5Q127 857 190.5 927.0Q254 997 340.0 1035.0Q426 1073 524 1073Q741 1073 852 909H856ZM541 115Q686 115 771.0 225.5Q856 336 856.0 522.0Q856 708 771.0 819.0Q686 930 541 930Q463 930 400.0 895.5Q337 861 298.0 803.0Q259 745 238.0 672.5Q217 600 217 522Q217 416 252.0 325.5Q287 235 362.5 175.0Q438 115 541 115Z"/><path id="g72" d="M557 115Q617 115 667.0 130.0Q717 145 749.5 167.0Q782 189 806.5 218.0Q831 247 843.5 272.5Q856 298 862 322H1026Q983 165 865.5 68.0Q748 -29 563 -29Q328 -29 190.5 122.0Q53 273 53 522Q53 781 188.5 927.0Q324 1073 555 1073Q797 1073 919.5 918.0Q1042 763 1042 479H217Q217 382 253.5 301.0Q290 220 369.0 167.5Q448 115 557 115ZM555 930Q409 930 313.0 840.5Q217 751 217 623H879Q879 752 789.0 841.0Q699 930 555 930Z"/><path id="g74" d="M856 1044H1020V57Q1020 -149 898.0 -255.5Q776 -362 557 -362Q350 -362 223.5 -267.5Q97 -173 84 -33H248Q264 -119 337.0 -169.0Q410 -219 549 -219Q856 -219 856 59V217H852Q741 53 520 53Q422 53 338.0 85.0Q254 117 190.0 178.5Q126 240 89.5 338.5Q53 437 53.0 563.0Q53 689 89.5 787.5Q126 886 190.0 947.5Q254 1009 338.0 1041.0Q422 1073 520 1073Q732 1073 852 915H856ZM541 197Q690 197 773.0 289.5Q856 382 856.0 563.0Q856 744 773.0 837.0Q690 930 541 930Q386 930 301.5 827.0Q217 724 217.0 563.0Q217 402 301.5 299.5Q386 197 541 197Z"/><path id="g75" d="M625 1073Q698 1073 760.0 1052.5Q822 1032 871.0 991.5Q920 951 947.5 883.5Q975 816 975 729V0H811V688Q811 797 756.0 863.5Q701 930 584 930Q447 930 361.5 851.5Q276 773 276 651V0H113V1464H276V920H281Q329 985 415.5 1029.0Q502 1073 625 1073Z"/><path id="g76" d="M215 1247Q178 1247 145.5 1274.5Q113 1302 113.0 1346.0Q113 1390 145.0 1417.0Q177 1444 215 1444Q254 1444 285.5 1417.0Q317 1390 317.0 1346.0Q317 1302 285.5 1274.5Q254 1247 215 1247ZM133 1044H297V0H133Z"/><path id="g78" d="M113 1464H276V596L756 1044H961L553 657L1004 0H809L438 561L276 412V0H113Z"/><path id="g79" d="M119 1464H283V0H119Z"/><path id="g80" d="M1204 1073Q1360 1073 1439.0 984.5Q1518 896 1518 729V0H1354V688Q1354 744 1347.0 783.5Q1340 823 1320.5 858.5Q1301 894 1261.5 912.0Q1222 930 1163 930Q1042 930 969.5 852.0Q897 774 897 651V0H733V688Q733 744 726.0 783.5Q719 823 700.0 858.5Q681 894 641.5 912.0Q602 930 543 930Q422 930 349.0 852.0Q276 774 276 651V0H113V1044H276V920H281Q395 1073 584 1073Q796 1073 862 893H866Q998 1073 1204 1073Z"/><path id="g81" d="M625 1073Q698 1073 760.0 1052.5Q822 1032 871.0 991.5Q920 951 947.5 883.5Q975 816 975 729V0H811V688Q811 797 756.0 863.5Q701 930 584 930Q447 930 361.5 851.5Q276 773 276 651V0H113V1044H276V920H281Q329 985 415.5 1029.0Q502 1073 625 1073Z"/><path id="g82" d="M565 -29Q800 -29 937.5 123.0Q1075 275 1075.0 522.0Q1075 769 937.5 921.0Q800 1073 565 1073Q329 1073 191.0 921.5Q53 770 53.0 522.0Q53 274 191.0 122.5Q329 -29 565 -29ZM565 115Q396 115 306.5 230.0Q217 345 217.0 522.0Q217 699 306.5 814.5Q396 930 565 930Q732 930 821.5 814.5Q911 699 911.0 522.0Q911 345 821.5 230.0Q732 115 565 115Z"/><path id="g83" d="M612 1073Q709 1073 794.0 1035.0Q879 997 942.5 927.0Q1006 857 1042.5 752.5Q1079 648 1079.0 522.0Q1079 396 1042.5 291.5Q1006 187 942.5 117.0Q879 47 794.0 9.0Q709 -29 612 -29Q392 -29 281 135H276V-352H113V1044H276V915H281Q401 1073 612 1073ZM592 115Q695 115 770.0 175.0Q845 235 880.0 325.5Q915 416 915.0 522.0Q915 628 880.0 719.0Q845 810 770.0 870.0Q695 930 592 930Q447 930 361.5 819.0Q276 708 276 522Q276 337 361.0 226.0Q446 115 592 115Z"/><path id="g85" d="M569 1073Q622 1073 666 1067V903H662Q495 930 385.5 828.5Q276 727 276 557V0H113V1044H276V838H281Q326 950 394.5 1011.5Q463 1073 569 1073Z"/><path id="g86" d="M537 621Q549 618 575 612Q645 595 681.5 585.0Q718 575 775.0 549.5Q832 524 860.5 493.5Q889 463 911.5 409.5Q934 356 934 287Q934 146 818.0 58.5Q702 -29 522 -29Q291 -29 172.0 71.5Q53 172 45 348H209Q212 308 220.0 278.5Q228 249 248.5 216.0Q269 183 301.5 162.5Q334 142 390.0 128.5Q446 115 522 115Q644 115 707.0 165.0Q770 215 770 276Q770 304 763.0 327.0Q756 350 746.5 366.0Q737 382 718.0 395.5Q699 409 683.5 417.5Q668 426 639.0 434.5Q610 443 591.5 447.5Q573 452 537.5 460.0Q502 468 483.0 473.0Q464 478 420.5 487.0Q377 496 352.5 502.0Q328 508 288.0 521.0Q248 534 224.0 547.0Q200 560 170.5 582.0Q141 604 125.0 630.0Q109 656 97.5 693.5Q86 731 86 776Q86 903 192.0 988.0Q298 1073 477 1073Q664 1073 772.0 980.5Q880 888 893 745H729Q723 774 715.5 795.5Q708 817 690.0 844.0Q672 871 646.5 888.5Q621 906 577.5 918.0Q534 930 477 930Q370 930 310.0 890.5Q250 851 250 788Q250 758 262.5 735.0Q275 712 290.5 698.0Q306 684 340.5 671.0Q375 658 396.5 652.5Q418 647 467.0 636.5Q516 626 537 621Z"/><path id="g87" d="M567 901H362V272Q362 187 409.0 161.0Q456 135 567 143V0Q512 -12 444 -12Q328 -12 263.5 47.5Q199 107 199 256V901H45V1044H199V1393H362V1044H567Z"/><path id="g88" d="M805 1044H969V0H805V125H801Q753 60 666.0 15.5Q579 -29 457 -29Q384 -29 321.5 -8.5Q259 12 210.5 52.5Q162 93 134.0 160.5Q106 228 106 315V1044H270V356Q270 247 325.5 181.0Q381 115 498 115Q635 115 720.0 193.0Q805 271 805 393Z"/><path id="g89" d="M4 1044H182L471 164H473L762 1044H940L565 0H379Z"/><path id="g90" d="M8 1044H188L426 178H430L664 1044H838L1073 178H1077L1315 1044H1495L1161 0H987L752 862H748L516 0H342Z"/><path id="g92" d="M997 1044 551 -86Q507 -196 478 -238Q400 -351 260 -352Q188 -352 121 -332V-209H145Q219 -216 267.0 -204.5Q315 -193 354 -152Q378 -126 394.0 -92.5Q410 -59 415.5 -11.0Q421 37 399 86L4 1044H188L508 193H512L813 1044Z"/><path id="g326" d="M188 1221Q238 1237 274.5 1209.0Q311 1181 311 1116Q311 1060 280.0 1028.5Q249 997 201 997Q145 997 115.5 1040.0Q86 1083 86 1157Q86 1202 96.0 1248.5Q106 1295 128.0 1342.0Q150 1389 192.0 1423.5Q234 1458 291 1468V1366Q244 1355 216.0 1316.5Q188 1278 188 1221ZM489 1221Q539 1237 575.5 1209.0Q612 1181 612 1116Q612 1060 581.0 1028.5Q550 997 502 997Q446 997 416.5 1040.0Q387 1083 387 1157Q387 1202 397.0 1248.5Q407 1295 429.0 1342.0Q451 1389 493.0 1423.5Q535 1458 592 1468V1366Q545 1355 517.0 1316.5Q489 1278 489 1221Z"/><path id="g327" d="M209 1255Q159 1239 122.5 1267.0Q86 1295 86 1360Q86 1416 117.5 1447.5Q149 1479 197 1479Q253 1479 282.0 1436.0Q311 1393 311 1319Q311 1274 301.0 1227.5Q291 1181 269.0 1134.0Q247 1087 205.0 1052.5Q163 1018 106 1008V1110Q153 1121 181.0 1159.5Q209 1198 209 1255ZM510 1255Q460 1239 423.5 1267.0Q387 1295 387 1360Q387 1416 418.5 1447.5Q450 1479 498 1479Q554 1479 583.0 1436.0Q612 1393 612 1319Q612 1274 602.0 1228.0Q592 1182 570.5 1134.5Q549 1087 507.0 1052.5Q465 1018 408 1008V1110Q455 1121 482.5 1159.5Q510 1198 510 1255Z"/><path id="g341" d="M965 100 854 201 1212 582H61V725H1212L854 1106L965 1206L1477 653Z"/><path id="g346" d="M1141 475 991 469 977 991 162 178 61 279 874 1092 352 1108 358 1257 1112 1229Z"/><clipPath id="card"><rect width="440" height="470" rx="20"/></clipPath><clipPath id="c0"><rect y="74" width="440" height="58"/></clipPath><clipPath id="c1"><rect y="129" width="440" height="58"/></clipPath><clipPath id="roll"><rect x="20" y="430" width="300" height="19"/></clipPath></defs><g clip-path="url(#card)"><rect width="440" height="470" fill="#E9EAEB"/><g fill="#141517" clip-path="url(#c0)"><g class="up" style="animation-delay:0.600s"><use href="#g54" transform="translate(19.00 120.00) scale(0.02734 -0.02734)"/></g><g class="up" style="animation-delay:0.620s"><use href="#g87" transform="translate(51.53 120.00) scale(0.02734 -0.02734)"/></g><g class="up" style="animation-delay:0.640s"><use href="#g68" transform="translate(66.13 120.00) scale(0.02734 -0.02734)"/></g><g class="up" style="animation-delay:0.660s"><use href="#g85" transform="translate(92.16 120.00) scale(0.02734 -0.02734)"/></g><g class="up" style="animation-delay:0.680s"><use href="#g87" transform="translate(108.83 120.00) scale(0.02734 -0.02734)"/></g><g class="up" style="animation-delay:0.720s"><use href="#g68" transform="translate(132.09 120.00) scale(0.02734 -0.02734)"/></g></g><g fill="#141517" clip-path="url(#c1)"><g class="up" style="animation-delay:0.720s"><use href="#g70" transform="translate(19.00 174.88) scale(0.02734 -0.02734)"/></g><g class="up" style="animation-delay:0.740s"><use href="#g82" transform="translate(45.52 174.88) scale(0.02734 -0.02734)"/></g><g class="up" style="animation-delay:0.760s"><use href="#g81" transform="translate(73.84 174.88) scale(0.02734 -0.02734)"/></g><g class="up" style="animation-delay:0.780s"><use href="#g89" transform="translate(100.33 174.88) scale(0.02734 -0.02734)"/></g><g class="up" style="animation-delay:0.800s"><use href="#g72" transform="translate(123.08 174.88) scale(0.02734 -0.02734)"/></g><g class="up" style="animation-delay:0.820s"><use href="#g85" transform="translate(150.39 174.88) scale(0.02734 -0.02734)"/></g><g class="up" style="animation-delay:0.840s"><use href="#g86" transform="translate(167.07 174.88) scale(0.02734 -0.02734)"/></g><g class="up" style="animation-delay:0.860s"><use href="#g68" transform="translate(191.62 174.88) scale(0.02734 -0.02734)"/></g><g class="up" style="animation-delay:0.880s"><use href="#g87" transform="translate(217.10 174.88) scale(0.02734 -0.02734)"/></g><g class="up" style="animation-delay:0.900s"><use href="#g76" transform="translate(231.69 174.88) scale(0.02734 -0.02734)"/></g><g class="up" style="animation-delay:0.920s"><use href="#g82" transform="translate(240.93 174.88) scale(0.02734 -0.02734)"/></g><g class="up" style="animation-delay:0.940s"><use href="#g81" transform="translate(269.26 174.88) scale(0.02734 -0.02734)"/></g></g><g fill="#141517" class="nudge"><use href="#g341" transform="translate(19.00 228.08) scale(0.02188 -0.02188)"/></g><rect x="22" y="280" width="396" height="1" fill="rgba(20,21,23,0.5)" opacity=".45"/><g fill="#141517" ><use href="#g85" transform="translate(22.00 312.00) scale(0.00708 -0.00708)"/><use href="#g88" transform="translate(27.14 312.00) scale(0.00708 -0.00708)"/><use href="#g71" transform="translate(34.97 312.00) scale(0.00708 -0.00708)"/><use href="#g92" transform="translate(43.16 312.00) scale(0.00708 -0.00708)"/><use href="#g17" transform="translate(49.55 312.00) scale(0.00708 -0.00708)"/><use href="#g85" transform="translate(52.59 312.00) scale(0.00708 -0.00708)"/><use href="#g88" transform="translate(57.74 312.00) scale(0.00708 -0.00708)"/><use href="#g71" transform="translate(65.56 312.00) scale(0.00708 -0.00708)"/><use href="#g75" transform="translate(73.61 312.00) scale(0.00708 -0.00708)"/><use href="#g85" transform="translate(81.44 312.00) scale(0.00708 -0.00708)"/><use href="#g72" transform="translate(86.29 312.00) scale(0.00708 -0.00708)"/><use href="#g86" transform="translate(94.19 312.00) scale(0.00708 -0.00708)"/><use href="#g75" transform="translate(101.30 312.00) scale(0.00708 -0.00708)"/><use href="#g35" transform="translate(109.13 312.00) scale(0.00708 -0.00708)"/><use href="#g74" transform="translate(122.20 312.00) scale(0.00708 -0.00708)"/><use href="#g80" transform="translate(130.39 312.00) scale(0.00708 -0.00708)"/><use href="#g68" transform="translate(142.07 312.00) scale(0.00708 -0.00708)"/><use href="#g76" transform="translate(149.63 312.00) scale(0.00708 -0.00708)"/><use href="#g79" transform="translate(152.71 312.00) scale(0.00708 -0.00708)"/><use href="#g17" transform="translate(155.72 312.00) scale(0.00708 -0.00708)"/><use href="#g70" transform="translate(158.40 312.00) scale(0.00708 -0.00708)"/><use href="#g82" transform="translate(166.09 312.00) scale(0.00708 -0.00708)"/><use href="#g80" transform="translate(174.25 312.00) scale(0.00708 -0.00708)"/></g><g fill="#141517" ><use href="#g47" transform="translate(22.00 340.00) scale(0.00708 -0.00708)"/><use href="#g76" transform="translate(30.20 340.00) scale(0.00708 -0.00708)"/><use href="#g81" transform="translate(33.42 340.00) scale(0.00708 -0.00708)"/><use href="#g78" transform="translate(41.25 340.00) scale(0.00708 -0.00708)"/><use href="#g72" transform="translate(48.08 340.00) scale(0.00708 -0.00708)"/><use href="#g71" transform="translate(55.98 340.00) scale(0.00708 -0.00708)"/><use href="#g44" transform="translate(64.17 340.00) scale(0.00708 -0.00708)"/><use href="#g81" transform="translate(67.64 340.00) scale(0.00708 -0.00708)"/><use href="#g346" transform="translate(78.54 340.00) scale(0.00708 -0.00708)"/></g><g fill="#141517" ><use href="#g55" transform="translate(109.05 340.00) scale(0.00708 -0.00708)"/><use href="#g72" transform="translate(116.47 340.00) scale(0.00708 -0.00708)"/><use href="#g79" transform="translate(124.37 340.00) scale(0.00708 -0.00708)"/><use href="#g72" transform="translate(127.38 340.00) scale(0.00708 -0.00708)"/><use href="#g74" transform="translate(135.28 340.00) scale(0.00708 -0.00708)"/><use href="#g85" transform="translate(143.47 340.00) scale(0.00708 -0.00708)"/><use href="#g68" transform="translate(148.32 340.00) scale(0.00708 -0.00708)"/><use href="#g80" transform="translate(155.89 340.00) scale(0.00708 -0.00708)"/><use href="#g346" transform="translate(170.63 340.00) scale(0.00708 -0.00708)"/></g><g fill="#141517" ><use href="#g85" transform="translate(201.14 340.00) scale(0.00708 -0.00708)"/><use href="#g88" transform="translate(206.28 340.00) scale(0.00708 -0.00708)"/><use href="#g71" transform="translate(214.11 340.00) scale(0.00708 -0.00708)"/><use href="#g75" transform="translate(222.16 340.00) scale(0.00708 -0.00708)"/><use href="#g85" transform="translate(229.99 340.00) scale(0.00708 -0.00708)"/><use href="#g72" transform="translate(234.84 340.00) scale(0.00708 -0.00708)"/><use href="#g86" transform="translate(242.74 340.00) scale(0.00708 -0.00708)"/><use href="#g75" transform="translate(249.85 340.00) scale(0.00708 -0.00708)"/><use href="#g17" transform="translate(257.68 340.00) scale(0.00708 -0.00708)"/><use href="#g70" transform="translate(260.36 340.00) scale(0.00708 -0.00708)"/><use href="#g82" transform="translate(268.05 340.00) scale(0.00708 -0.00708)"/><use href="#g80" transform="translate(276.21 340.00) scale(0.00708 -0.00708)"/><use href="#g346" transform="translate(290.95 340.00) scale(0.00708 -0.00708)"/></g><circle cx="26" cy="363" r="4" fill="#28c840"/><circle class="ping" cx="26" cy="363" r="4" fill="#28c840"/><g fill="rgba(20,21,23,0.5)" ><use href="#g50" transform="translate(38.00 368.00) scale(0.00708 -0.00708)"/><use href="#g83" transform="translate(49.48 368.00) scale(0.00708 -0.00708)"/><use href="#g72" transform="translate(57.71 368.00) scale(0.00708 -0.00708)"/><use href="#g81" transform="translate(65.61 368.00) scale(0.00708 -0.00708)"/><use href="#g87" transform="translate(76.51 368.00) scale(0.00708 -0.00708)"/><use href="#g82" transform="translate(81.04 368.00) scale(0.00708 -0.00708)"/><use href="#g76" transform="translate(92.27 368.00) scale(0.00708 -0.00708)"/><use href="#g81" transform="translate(95.49 368.00) scale(0.00708 -0.00708)"/><use href="#g87" transform="translate(103.18 368.00) scale(0.00708 -0.00708)"/><use href="#g72" transform="translate(107.71 368.00) scale(0.00708 -0.00708)"/><use href="#g85" transform="translate(115.61 368.00) scale(0.00708 -0.00708)"/><use href="#g81" transform="translate(120.76 368.00) scale(0.00708 -0.00708)"/><use href="#g86" transform="translate(128.58 368.00) scale(0.00708 -0.00708)"/><use href="#g75" transform="translate(135.70 368.00) scale(0.00708 -0.00708)"/><use href="#g76" transform="translate(143.52 368.00) scale(0.00708 -0.00708)"/><use href="#g83" transform="translate(146.74 368.00) scale(0.00708 -0.00708)"/><use href="#g86" transform="translate(154.97 368.00) scale(0.00708 -0.00708)"/><use href="#g15" transform="translate(162.09 368.00) scale(0.00708 -0.00708)"/><use href="#g41" transform="translate(168.20 368.00) scale(0.00708 -0.00708)"/><use href="#g88" transform="translate(176.24 368.00) scale(0.00708 -0.00708)"/><use href="#g79" transform="translate(184.06 368.00) scale(0.00708 -0.00708)"/><use href="#g79" transform="translate(186.94 368.00) scale(0.00708 -0.00708)"/><use href="#g16" transform="translate(189.95 368.00) scale(0.00708 -0.00708)"/><use href="#g54" transform="translate(195.25 368.00) scale(0.00708 -0.00708)"/><use href="#g87" transform="translate(204.50 368.00) scale(0.00708 -0.00708)"/><use href="#g68" transform="translate(209.11 368.00) scale(0.00708 -0.00708)"/><use href="#g70" transform="translate(216.67 368.00) scale(0.00708 -0.00708)"/><use href="#g78" transform="translate(224.36 368.00) scale(0.00708 -0.00708)"/><use href="#g36" transform="translate(234.69 368.00) scale(0.00708 -0.00708)"/><use href="#g44" transform="translate(244.25 368.00) scale(0.00708 -0.00708)"/></g><g fill="rgba(20,21,23,0.5)" ><use href="#g326" transform="translate(22.00 404.00) scale(0.00610 -0.00610)"/><use href="#g36" transform="translate(25.41 404.00) scale(0.00610 -0.00610)"/><use href="#g80" transform="translate(36.29 404.00) scale(0.00610 -0.00610)"/><use href="#g68" transform="translate(46.35 404.00) scale(0.00610 -0.00610)"/><use href="#g81" transform="translate(52.88 404.00) scale(0.00610 -0.00610)"/><use href="#g90" transform="translate(62.27 404.00) scale(0.00610 -0.00610)"/><use href="#g75" transform="translate(71.59 404.00) scale(0.00610 -0.00610)"/><use href="#g82" transform="translate(78.34 404.00) scale(0.00610 -0.00610)"/><use href="#g75" transform="translate(88.02 404.00) scale(0.00610 -0.00610)"/><use href="#g68" transform="translate(94.77 404.00) scale(0.00610 -0.00610)"/><use href="#g86" transform="translate(101.29 404.00) scale(0.00610 -0.00610)"/><use href="#g81" transform="translate(110.07 404.00) scale(0.00610 -0.00610)"/><use href="#g82" transform="translate(116.82 404.00) scale(0.00610 -0.00610)"/><use href="#g87" transform="translate(123.73 404.00) scale(0.00610 -0.00610)"/><use href="#g75" transform="translate(130.35 404.00) scale(0.00610 -0.00610)"/><use href="#g76" transform="translate(137.10 404.00) scale(0.00610 -0.00610)"/><use href="#g87" transform="translate(139.87 404.00) scale(0.00610 -0.00610)"/><use href="#g75" transform="translate(146.49 404.00) scale(0.00610 -0.00610)"/><use href="#g76" transform="translate(153.24 404.00) scale(0.00610 -0.00610)"/><use href="#g86" transform="translate(156.01 404.00) scale(0.00610 -0.00610)"/><use href="#g38" transform="translate(164.79 404.00) scale(0.00610 -0.00610)"/><use href="#g79" transform="translate(173.80 404.00) scale(0.00610 -0.00610)"/><use href="#g68" transform="translate(176.40 404.00) scale(0.00610 -0.00610)"/><use href="#g88" transform="translate(182.92 404.00) scale(0.00610 -0.00610)"/><use href="#g71" transform="translate(189.67 404.00) scale(0.00610 -0.00610)"/><use href="#g72" transform="translate(196.73 404.00) scale(0.00610 -0.00610)"/><use href="#g79" transform="translate(206.18 404.00) scale(0.00610 -0.00610)"/><use href="#g76" transform="translate(208.66 404.00) scale(0.00610 -0.00610)"/><use href="#g80" transform="translate(211.43 404.00) scale(0.00610 -0.00610)"/><use href="#g76" transform="translate(221.50 404.00) scale(0.00610 -0.00610)"/><use href="#g87" transform="translate(224.27 404.00) scale(0.00610 -0.00610)"/><use href="#g69" transform="translate(230.89 404.00) scale(0.00610 -0.00610)"/><use href="#g92" transform="translate(237.82 404.00) scale(0.00610 -0.00610)"/><use href="#g81" transform="translate(246.73 404.00) scale(0.00610 -0.00610)"/><use href="#g82" transform="translate(253.48 404.00) scale(0.00610 -0.00610)"/><use href="#g82" transform="translate(260.51 404.00) scale(0.00610 -0.00610)"/><use href="#g81" transform="translate(267.55 404.00) scale(0.00610 -0.00610)"/><use href="#g75" transform="translate(276.94 404.00) scale(0.00610 -0.00610)"/><use href="#g68" transform="translate(283.69 404.00) scale(0.00610 -0.00610)"/><use href="#g86" transform="translate(290.21 404.00) scale(0.00610 -0.00610)"/><use href="#g90" transform="translate(298.99 404.00) scale(0.00610 -0.00610)"/><use href="#g68" transform="translate(308.12 404.00) scale(0.00610 -0.00610)"/><use href="#g86" transform="translate(314.65 404.00) scale(0.00610 -0.00610)"/><use href="#g87" transform="translate(320.66 404.00) scale(0.00610 -0.00610)"/><use href="#g72" transform="translate(324.57 404.00) scale(0.00610 -0.00610)"/><use href="#g71" transform="translate(331.37 404.00) scale(0.00610 -0.00610)"/><use href="#g75" transform="translate(341.08 404.00) scale(0.00610 -0.00610)"/><use href="#g76" transform="translate(347.83 404.00) scale(0.00610 -0.00610)"/><use href="#g86" transform="translate(350.60 404.00) scale(0.00610 -0.00610)"/><use href="#g80" transform="translate(359.38 404.00) scale(0.00610 -0.00610)"/><use href="#g82" transform="translate(369.44 404.00) scale(0.00610 -0.00610)"/><use href="#g85" transform="translate(376.48 404.00) scale(0.00610 -0.00610)"/><use href="#g81" transform="translate(380.91 404.00) scale(0.00610 -0.00610)"/><use href="#g76" transform="translate(387.66 404.00) scale(0.00610 -0.00610)"/><use href="#g81" transform="translate(390.43 404.00) scale(0.00610 -0.00610)"/><use href="#g74" transform="translate(397.18 404.00) scale(0.00610 -0.00610)"/><use href="#g17" transform="translate(404.24 404.00) scale(0.00610 -0.00610)"/><use href="#g327" transform="translate(406.86 404.00) scale(0.00610 -0.00610)"/></g><g fill="rgba(20,21,23,0.5)" ><use href="#g36" transform="translate(22.00 422.00) scale(0.00610 -0.00610)"/><use href="#g85" transform="translate(30.24 422.00) scale(0.00610 -0.00610)"/><use href="#g76" transform="translate(34.67 422.00) scale(0.00610 -0.00610)"/><use href="#g86" transform="translate(37.45 422.00) scale(0.00610 -0.00610)"/><use href="#g87" transform="translate(43.46 422.00) scale(0.00610 -0.00610)"/><use href="#g82" transform="translate(47.37 422.00) scale(0.00610 -0.00610)"/><use href="#g87" transform="translate(54.28 422.00) scale(0.00610 -0.00610)"/><use href="#g79" transform="translate(58.25 422.00) scale(0.00610 -0.00610)"/><use href="#g72" transform="translate(60.85 422.00) scale(0.00610 -0.00610)"/><use href="#g15" transform="translate(67.53 422.00) scale(0.00610 -0.00610)"/><use href="#g83" transform="translate(72.80 422.00) scale(0.00610 -0.00610)"/><use href="#g85" transform="translate(79.90 422.00) scale(0.00610 -0.00610)"/><use href="#g82" transform="translate(84.08 422.00) scale(0.00610 -0.00610)"/><use href="#g69" transform="translate(91.12 422.00) scale(0.00610 -0.00610)"/><use href="#g68" transform="translate(98.18 422.00) scale(0.00610 -0.00610)"/><use href="#g69" transform="translate(104.70 422.00) scale(0.00610 -0.00610)"/><use href="#g79" transform="translate(111.76 422.00) scale(0.00610 -0.00610)"/><use href="#g92" transform="translate(114.35 422.00) scale(0.00610 -0.00610)"/></g><g clip-path="url(#roll)"><g class="roll"><g fill="rgba(20,21,23,0.5)" ><use href="#g38" transform="translate(22.00 444.00) scale(0.00635 -0.00635)"/><use href="#g82" transform="translate(31.37 444.00) scale(0.00635 -0.00635)"/><use href="#g71" transform="translate(38.69 444.00) scale(0.00635 -0.00635)"/><use href="#g72" transform="translate(46.03 444.00) scale(0.00635 -0.00635)"/><use href="#g69" transform="translate(55.86 444.00) scale(0.00635 -0.00635)"/><use href="#g92" transform="translate(63.08 444.00) scale(0.00635 -0.00635)"/><use href="#g53" transform="translate(72.34 444.00) scale(0.00635 -0.00635)"/><use href="#g88" transform="translate(80.72 444.00) scale(0.00635 -0.00635)"/><use href="#g71" transform="translate(87.74 444.00) scale(0.00635 -0.00635)"/><use href="#g92" transform="translate(95.08 444.00) scale(0.00635 -0.00635)"/></g><g fill="rgba(20,21,23,0.5)" ><use href="#g36" transform="translate(22.00 463.00) scale(0.00635 -0.00635)"/><use href="#g74" transform="translate(30.37 463.00) scale(0.00635 -0.00635)"/><use href="#g81" transform="translate(37.71 463.00) scale(0.00635 -0.00635)"/><use href="#g72" transform="translate(44.73 463.00) scale(0.00635 -0.00635)"/><use href="#g53" transform="translate(54.56 463.00) scale(0.00635 -0.00635)"/><use href="#g88" transform="translate(62.95 463.00) scale(0.00635 -0.00635)"/><use href="#g71" transform="translate(69.96 463.00) scale(0.00635 -0.00635)"/><use href="#g75" transform="translate(77.18 463.00) scale(0.00635 -0.00635)"/><use href="#g85" transform="translate(84.20 463.00) scale(0.00635 -0.00635)"/><use href="#g72" transform="translate(88.55 463.00) scale(0.00635 -0.00635)"/><use href="#g86" transform="translate(95.63 463.00) scale(0.00635 -0.00635)"/><use href="#g75" transform="translate(102.01 463.00) scale(0.00635 -0.00635)"/><use href="#g53" transform="translate(111.78 463.00) scale(0.00635 -0.00635)"/><use href="#g68" transform="translate(120.16 463.00) scale(0.00635 -0.00635)"/><use href="#g89" transform="translate(126.81 463.00) scale(0.00635 -0.00635)"/><use href="#g76" transform="translate(132.96 463.00) scale(0.00635 -0.00635)"/><use href="#g70" transform="translate(135.85 463.00) scale(0.00635 -0.00635)"/><use href="#g75" transform="translate(142.74 463.00) scale(0.00635 -0.00635)"/><use href="#g68" transform="translate(149.76 463.00) scale(0.00635 -0.00635)"/><use href="#g81" transform="translate(156.55 463.00) scale(0.00635 -0.00635)"/><use href="#g71" transform="translate(163.56 463.00) scale(0.00635 -0.00635)"/><use href="#g85" transform="translate(170.90 463.00) scale(0.00635 -0.00635)"/><use href="#g68" transform="translate(175.26 463.00) scale(0.00635 -0.00635)"/><use href="#g81" transform="translate(182.04 463.00) scale(0.00635 -0.00635)"/></g><g fill="rgba(20,21,23,0.5)" ><use href="#g38" transform="translate(22.00 482.00) scale(0.00635 -0.00635)"/><use href="#g82" transform="translate(31.37 482.00) scale(0.00635 -0.00635)"/><use href="#g71" transform="translate(38.69 482.00) scale(0.00635 -0.00635)"/><use href="#g72" transform="translate(46.03 482.00) scale(0.00635 -0.00635)"/><use href="#g69" transform="translate(55.86 482.00) scale(0.00635 -0.00635)"/><use href="#g92" transform="translate(63.08 482.00) scale(0.00635 -0.00635)"/><use href="#g53" transform="translate(72.34 482.00) scale(0.00635 -0.00635)"/><use href="#g88" transform="translate(80.72 482.00) scale(0.00635 -0.00635)"/><use href="#g71" transform="translate(87.74 482.00) scale(0.00635 -0.00635)"/><use href="#g92" transform="translate(95.08 482.00) scale(0.00635 -0.00635)"/></g></g></g><path fill="#0d1117" d="M0 0H440V0A20 20 0 0 1 420 20C320.0 20 320.0 42.1 220.0 42.1C120.0 42.1 120.0 20 20 20A20 20 0 0 1 0 0Z"><animate attributeName="d" dur="10s" repeatCount="indefinite" values="M0 0H440V0A20 20 0 0 1 420 20C320.0 20 320.0 42.1 220.0 42.1C120.0 42.1 120.0 20 20 20A20 20 0 0 1 0 0Z;M0 0H440V0A20 20 0 0 1 420 20C327.5 20 327.5 43.4 235.0 43.4C127.5 43.4 127.5 20 20 20A20 20 0 0 1 0 0Z;M0 0H440V0A20 20 0 0 1 420 20C333.9 20 333.9 44.0 247.8 44.0C133.9 44.0 133.9 20 20 20A20 20 0 0 1 0 0Z;M0 0H440V0A20 20 0 0 1 420 20C338.7 20 338.7 43.7 257.4 43.7C138.7 43.7 138.7 20 20 20A20 20 0 0 1 0 0Z;M0 0H440V0A20 20 0 0 1 420 20C341.9 20 341.9 42.7 263.8 42.7C141.9 42.7 141.9 20 20 20A20 20 0 0 1 0 0Z;M0 0H440V0A20 20 0 0 1 420 20C344.3 20 344.3 41.1 268.5 41.1C144.3 41.1 144.3 20 20 20A20 20 0 0 1 0 0Z;M0 0H440V0A20 20 0 0 1 420 20C346.7 20 346.7 38.9 273.3 38.9C146.7 38.9 146.7 20 20 20A20 20 0 0 1 0 0Z;M0 0H440V0A20 20 0 0 1 420 20C349.8 20 349.8 36.6 279.5 36.6C149.8 36.6 149.8 20 20 20A20 20 0 0 1 0 0Z;M0 0H440V0A20 20 0 0 1 420 20C353.6 20 353.6 34.4 287.2 34.4C153.6 34.4 153.6 20 20 20A20 20 0 0 1 0 0Z;M0 0H440V0A20 20 0 0 1 420 20C357.4 20 357.4 32.5 294.8 32.5C157.4 32.5 157.4 20 20 20A20 20 0 0 1 0 0Z;M0 0H440V0A20 20 0 0 1 420 20C360.1 20 360.1 31.1 300.2 31.1C160.1 31.1 160.1 20 20 20A20 20 0 0 1 0 0Z;M0 0H440V0A20 20 0 0 1 420 20C360.5 20 360.5 30.6 301.0 30.6C160.5 30.6 160.5 20 20 20A20 20 0 0 1 0 0Z;M0 0H440V0A20 20 0 0 1 420 20C358.1 20 358.1 30.8 296.2 30.8C158.1 30.8 158.1 20 20 20A20 20 0 0 1 0 0Z;M0 0H440V0A20 20 0 0 1 420 20C353.0 20 353.0 31.8 286.1 31.8C153.0 31.8 153.0 20 20 20A20 20 0 0 1 0 0Z;M0 0H440V0A20 20 0 0 1 420 20C346.2 20 346.2 33.5 272.3 33.5C146.2 33.5 146.2 20 20 20A20 20 0 0 1 0 0Z;M0 0H440V0A20 20 0 0 1 420 20C338.7 20 338.7 35.6 257.4 35.6C138.7 35.6 138.7 20 20 20A20 20 0 0 1 0 0Z;M0 0H440V0A20 20 0 0 1 420 20C331.7 20 331.7 38.0 243.3 38.0C131.7 38.0 131.7 20 20 20A20 20 0 0 1 0 0Z;M0 0H440V0A20 20 0 0 1 420 20C325.5 20 325.5 40.2 231.0 40.2C125.5 40.2 125.5 20 20 20A20 20 0 0 1 0 0Z;M0 0H440V0A20 20 0 0 1 420 20C320.0 20 320.0 42.1 220.0 42.1C120.0 42.1 120.0 20 20 20A20 20 0 0 1 0 0Z;M0 0H440V0A20 20 0 0 1 420 20C314.5 20 314.5 43.4 209.0 43.4C114.5 43.4 114.5 20 20 20A20 20 0 0 1 0 0Z;M0 0H440V0A20 20 0 0 1 420 20C308.3 20 308.3 44.0 196.7 44.0C108.3 44.0 108.3 20 20 20A20 20 0 0 1 0 0Z;M0 0H440V0A20 20 0 0 1 420 20C301.3 20 301.3 43.7 182.6 43.7C101.3 43.7 101.3 20 20 20A20 20 0 0 1 0 0Z;M0 0H440V0A20 20 0 0 1 420 20C293.8 20 293.8 42.7 167.7 42.7C93.8 42.7 93.8 20 20 20A20 20 0 0 1 0 0Z;M0 0H440V0A20 20 0 0 1 420 20C287.0 20 287.0 41.1 153.9 41.1C87.0 41.1 87.0 20 20 20A20 20 0 0 1 0 0Z;M0 0H440V0A20 20 0 0 1 420 20C281.9 20 281.9 38.9 143.8 38.9C81.9 38.9 81.9 20 20 20A20 20 0 0 1 0 0Z;M0 0H440V0A20 20 0 0 1 420 20C279.5 20 279.5 36.6 139.0 36.6C79.5 36.6 79.5 20 20 20A20 20 0 0 1 0 0Z;M0 0H440V0A20 20 0 0 1 420 20C279.9 20 279.9 34.4 139.8 34.4C79.9 34.4 79.9 20 20 20A20 20 0 0 1 0 0Z;M0 0H440V0A20 20 0 0 1 420 20C282.6 20 282.6 32.5 145.2 32.5C82.6 32.5 82.6 20 20 20A20 20 0 0 1 0 0Z;M0 0H440V0A20 20 0 0 1 420 20C286.4 20 286.4 31.1 152.8 31.1C86.4 31.1 86.4 20 20 20A20 20 0 0 1 0 0Z;M0 0H440V0A20 20 0 0 1 420 20C290.2 20 290.2 30.6 160.5 30.6C90.2 30.6 90.2 20 20 20A20 20 0 0 1 0 0Z;M0 0H440V0A20 20 0 0 1 420 20C293.3 20 293.3 30.8 166.7 30.8C93.3 30.8 93.3 20 20 20A20 20 0 0 1 0 0Z;M0 0H440V0A20 20 0 0 1 420 20C295.7 20 295.7 31.8 171.5 31.8C95.7 31.8 95.7 20 20 20A20 20 0 0 1 0 0Z;M0 0H440V0A20 20 0 0 1 420 20C298.1 20 298.1 33.5 176.2 33.5C98.1 33.5 98.1 20 20 20A20 20 0 0 1 0 0Z;M0 0H440V0A20 20 0 0 1 420 20C301.3 20 301.3 35.6 182.6 35.6C101.3 35.6 101.3 20 20 20A20 20 0 0 1 0 0Z;M0 0H440V0A20 20 0 0 1 420 20C306.1 20 306.1 38.0 192.2 38.0C106.1 38.0 106.1 20 20 20A20 20 0 0 1 0 0Z;M0 0H440V0A20 20 0 0 1 420 20C312.5 20 312.5 40.2 205.0 40.2C112.5 40.2 112.5 20 20 20A20 20 0 0 1 0 0Z;M0 0H440V0A20 20 0 0 1 420 20C320.0 20 320.0 42.1 220.0 42.1C120.0 42.1 120.0 20 20 20A20 20 0 0 1 0 0Z"/></path></g></svg>